<svg width="33" height="27" viewBox="0 0 33 27" fill="none" xmlns="http://www.w3.org/2000/svg">
<g clip-path="url(#clip0_965_16)">
<path d="M16.4039 12.7044C19.0044 12.7044 21.0269 10.5697 21.0269 7.94993C21.0269 5.33011 18.908 3.29248 16.3076 3.29248C13.7071 3.29248 11.6846 5.42715 11.6846 7.94993C11.6846 10.5697 13.8035 12.7044 16.4039 12.7044ZM16.3076 5.23309C16.4039 5.23309 16.4039 5.23309 16.3076 5.23309C17.8486 5.23309 19.1007 6.49448 19.1007 8.04696C19.1007 9.59945 17.8486 10.7638 16.3076 10.7638C14.7666 10.7638 13.6108 9.50242 13.6108 8.04696C13.6108 6.49448 14.8629 5.23309 16.3076 5.23309V5.23309Z" fill="#FF7B47"/>
<path d="M30.658 12.122C28.8281 10.4725 26.4203 9.59924 23.9161 9.69627H23.1456C22.953 10.4725 22.6641 11.1517 22.2788 11.7339C22.8567 11.6369 23.3383 11.6369 23.9161 11.6369C25.7461 11.5398 27.576 12.122 29.0207 13.1894V20.1755H30.947V12.4131L30.658 12.122Z" fill="#FF7B47"/>
<path d="M21.7009 3.4859C22.1825 2.32154 23.5309 1.73936 24.7829 2.22451C25.9387 2.70966 26.5166 4.06808 26.035 5.32948C25.6498 6.20275 24.7829 6.78493 23.9161 6.78493C23.7235 6.78493 23.4346 6.78493 23.2419 6.6879C23.3382 7.17305 23.3382 7.6582 23.3382 8.04632V8.6285C23.5309 8.6285 23.7235 8.72553 23.9161 8.72553C26.3239 8.72553 28.2502 6.78493 28.2502 4.4562C28.2502 2.03045 26.3239 0.0898438 24.0124 0.0898438C22.4714 0.0898438 21.123 0.866085 20.3525 2.22451C20.8341 2.5156 21.3157 2.90372 21.7009 3.4859V3.4859Z" fill="#FF7B47"/>
<path d="M10.7214 11.8306C10.3361 11.2484 10.0472 10.5692 9.85457 9.79296H9.08407C6.57993 9.69593 4.17211 10.5692 2.34216 12.1217L2.05322 12.4128V20.1752H3.97948V13.189C5.52049 12.1217 7.25412 11.5395 9.08407 11.6365C9.66195 11.6365 10.2398 11.7336 10.7214 11.8306Z" fill="#FF7B47"/>
<path d="M9.08371 8.62915C9.27634 8.62915 9.46896 8.62915 9.66159 8.53212V7.94994C9.66159 7.46479 9.66159 6.97963 9.7579 6.59151C9.56528 6.68854 9.27634 6.68854 9.08371 6.68854C7.83165 6.68854 6.7722 5.62121 6.7722 4.35982C6.7722 3.09843 7.83165 2.03109 9.08371 2.03109C10.0468 2.03109 10.9137 2.61327 11.2989 3.48655C11.6842 3.0014 12.262 2.51624 12.7436 2.12812C11.4915 0.0904882 8.89109 -0.588723 6.86852 0.67267C4.84595 1.93406 4.17176 4.55388 5.42382 6.59151C6.19433 7.85291 7.54271 8.62915 9.08371 8.62915V8.62915Z" fill="#FF7B47"/>
<path d="M24.3013 17.9435L24.1087 17.6524C22.1824 15.5177 19.4857 14.2563 16.5963 14.3534C13.7069 14.2563 10.9138 15.5177 8.98755 17.6524L8.79492 17.9435V25.3178C8.79492 26.1911 9.46911 26.9673 10.4322 26.9673H22.7603C23.6271 26.9673 24.3976 26.1911 24.3976 25.3178V17.9435H24.3013ZM22.375 25.0267H10.7212V18.6227C12.2622 17.0702 14.3811 16.294 16.5963 16.294C18.7152 16.1969 20.834 17.0702 22.375 18.6227V25.0267Z" fill="#FF7B47"/>
</g>
<defs>
<clipPath id="clip0_965_16">
<rect width="32" height="26.353" fill="white" transform="translate(0.5)"/>
</clipPath>
</defs>
</svg>
